<svg width="59" height="59" viewBox="0 0 59 59" fill="none" xmlns="http://www.w3.org/2000/svg">
<path d="M29.5 0L55.0477 14.75V44.25L29.5 59L3.95225 44.25V14.75L29.5 0Z" fill="#F7F4EC"/>
<path d="M26.7627 1.58036L28.5876 0.526786L28.8376 0.959798L29.5 0.57735L30.1624 0.959796L30.4124 0.526783L32.2373 1.58035L31.9873 2.01337L33.8121 3.06694L34.0621 2.63393L35.8869 3.6875L35.6369 4.12051L37.4618 5.17408L37.7118 4.74107L39.5366 5.79464L39.2866 6.22765L41.1115 7.28123L41.3615 6.84821L43.1863 7.90179L42.9363 8.3348L44.7611 9.38837L45.0111 8.95536L46.836 10.0089L46.586 10.4419L48.4108 11.4955L48.6608 11.0625L50.4856 12.1161L50.2356 12.5491L52.0605 13.6027L52.3105 13.1696L54.1353 14.2232L53.8853 14.6562L54.5477 15.0387V15.8036H55.0477V17.9107H54.5477V20.0179H55.0477V22.125H54.5477V24.2321H55.0477V26.3393H54.5477V28.4464H55.0477V30.5536H54.5477V32.6607H55.0477V34.7679H54.5477V36.875H55.0477V38.9821H54.5477V41.0893H55.0477V43.1964H54.5477V43.9613L53.8853 44.3438L54.1353 44.7768L52.3105 45.8304L52.0605 45.3973L50.2357 46.4509L50.4857 46.8839L48.6608 47.9375L48.4108 47.5045L46.586 48.5581L46.836 48.9911L45.0111 50.0446L44.7611 49.6116L42.9363 50.6652L43.1863 51.0982L41.3615 52.1518L41.1115 51.7188L39.2866 52.7723L39.5366 53.2054L37.7118 54.2589L37.4618 53.8259L35.6369 54.8795L35.8869 55.3125L34.0621 56.3661L33.8121 55.9331L31.9873 56.9866L32.2373 57.4196L30.4124 58.4732L30.1624 58.0402L29.5 58.4226L28.8376 58.0402L28.5876 58.4732L26.7627 57.4196L27.0127 56.9866L25.1879 55.9331L24.9379 56.3661L23.1131 55.3125L23.3631 54.8795L21.5382 53.8259L21.2882 54.2589L19.4634 53.2054L19.7134 52.7723L17.8885 51.7188L17.6385 52.1518L15.8137 51.0982L16.0637 50.6652L14.2389 49.6116L13.9889 50.0446L12.164 48.9911L12.414 48.5581L10.5892 47.5045L10.3392 47.9375L8.51435 46.8839L8.76435 46.4509L6.93951 45.3973L6.68951 45.8304L4.86467 44.7768L5.11467 44.3438L4.45225 43.9613V43.1964H3.95225V41.0893H4.45225V38.9821H3.95225V36.875H4.45225V34.7679H3.95225V32.6607H4.45225V30.5536H3.95225V28.4464H4.45225V26.3393H3.95225V24.2321H4.45225V22.125H3.95225V20.0179H4.45225V17.9107H3.95225V15.8036H4.45225V15.0387L5.11467 14.6562L4.86467 14.2232L6.68951 13.1696L6.93951 13.6027L8.76435 12.5491L8.51435 12.1161L10.3392 11.0625L10.5892 11.4955L12.414 10.4419L12.164 10.0089L13.9889 8.95536L14.2389 9.38837L16.0637 8.3348L15.8137 7.90179L17.6385 6.84822L17.8885 7.28123L19.7134 6.22766L19.4634 5.79464L21.2882 4.74107L21.5382 5.17408L23.3631 4.12051L23.1131 3.6875L24.9379 2.63393L25.1879 3.06694L27.0127 2.01337L26.7627 1.58036Z" stroke="#592F03" stroke-opacity="0.3" stroke-dasharray="2 2"/>
<path d="M34.0625 32.7857C34.2969 32.7857 34.5166 32.8276 34.7217 32.9113C34.9268 32.995 35.1055 33.1094 35.2578 33.2545C35.4102 33.3996 35.5303 33.5698 35.6182 33.7651C35.7061 33.9604 35.75 34.1696 35.75 34.3929C35.75 34.6161 35.7061 34.8253 35.6182 35.0206C35.5303 35.216 35.4102 35.3862 35.2578 35.5312C35.1055 35.6763 34.9268 35.7907 34.7217 35.8744C34.5166 35.9581 34.2969 36 34.0625 36C33.8281 36 33.6084 35.9581 33.4033 35.8744C33.1982 35.7907 33.0195 35.6763 32.8672 35.5312C32.7148 35.3862 32.5947 35.216 32.5068 35.0206C32.4189 34.8253 32.375 34.6161 32.375 34.3929C32.375 34.2199 32.4072 34.0413 32.4717 33.8571H27.7783C27.8428 34.0413 27.875 34.2199 27.875 34.3929C27.875 34.6161 27.8311 34.8253 27.7432 35.0206C27.6553 35.216 27.5352 35.3862 27.3828 35.5312C27.2305 35.6763 27.0518 35.7907 26.8467 35.8744C26.6416 35.9581 26.4219 36 26.1875 36C25.9531 36 25.7334 35.9581 25.5283 35.8744C25.3232 35.7907 25.1445 35.6763 24.9922 35.5312C24.8398 35.3862 24.7197 35.216 24.6318 35.0206C24.5439 34.8253 24.5 34.6161 24.5 34.3929C24.5 34.0859 24.5864 33.8013 24.7593 33.5391C24.9321 33.2768 25.165 33.0787 25.458 32.9448L21.6611 22.0714H20V21H22.4697L23.2168 23.1429H38L35.3809 30.6429H25.8447L26.5918 32.7857H34.0625ZM23.5947 24.2143L25.4668 29.5714H34.5635L36.4355 24.2143H23.5947ZM26.75 34.3929C26.75 34.2478 26.6943 34.1222 26.583 34.0162C26.4717 33.9102 26.3398 33.8571 26.1875 33.8571C26.0352 33.8571 25.9033 33.9102 25.792 34.0162C25.6807 34.1222 25.625 34.2478 25.625 34.3929C25.625 34.5379 25.6807 34.6635 25.792 34.7695C25.9033 34.8756 26.0352 34.9286 26.1875 34.9286C26.3398 34.9286 26.4717 34.8756 26.583 34.7695C26.6943 34.6635 26.75 34.5379 26.75 34.3929ZM34.0625 34.9286C34.2148 34.9286 34.3467 34.8756 34.458 34.7695C34.5693 34.6635 34.625 34.5379 34.625 34.3929C34.625 34.2478 34.5693 34.1222 34.458 34.0162C34.3467 33.9102 34.2148 33.8571 34.0625 33.8571C33.9102 33.8571 33.7783 33.9102 33.667 34.0162C33.5557 34.1222 33.5 34.2478 33.5 34.3929C33.5 34.5379 33.5557 34.6635 33.667 34.7695C33.7783 34.8756 33.9102 34.9286 34.0625 34.9286Z" fill="#592F03"/>
</svg>
