<svg width="59" height="59" viewBox="0 0 59 59" fill="none" xmlns="http://www.w3.org/2000/svg">
<path d="M29.5 0L55.0477 14.75V44.25L29.5 59L3.95225 44.25V14.75L29.5 0Z" fill="#F7F4EC"/>
<path d="M26.7627 1.58036L28.5876 0.526786L28.8376 0.959798L29.5 0.57735L30.1624 0.959796L30.4124 0.526783L32.2373 1.58035L31.9873 2.01337L33.8121 3.06694L34.0621 2.63393L35.8869 3.6875L35.6369 4.12051L37.4618 5.17408L37.7118 4.74107L39.5366 5.79464L39.2866 6.22765L41.1115 7.28123L41.3615 6.84821L43.1863 7.90179L42.9363 8.3348L44.7611 9.38837L45.0111 8.95536L46.836 10.0089L46.586 10.4419L48.4108 11.4955L48.6608 11.0625L50.4856 12.1161L50.2356 12.5491L52.0605 13.6027L52.3105 13.1696L54.1353 14.2232L53.8853 14.6562L54.5477 15.0387V15.8036H55.0477V17.9107H54.5477V20.0179H55.0477V22.125H54.5477V24.2321H55.0477V26.3393H54.5477V28.4464H55.0477V30.5536H54.5477V32.6607H55.0477V34.7679H54.5477V36.875H55.0477V38.9821H54.5477V41.0893H55.0477V43.1964H54.5477V43.9613L53.8853 44.3438L54.1353 44.7768L52.3105 45.8304L52.0605 45.3973L50.2357 46.4509L50.4857 46.8839L48.6608 47.9375L48.4108 47.5045L46.586 48.5581L46.836 48.9911L45.0111 50.0446L44.7611 49.6116L42.9363 50.6652L43.1863 51.0982L41.3615 52.1518L41.1115 51.7188L39.2866 52.7723L39.5366 53.2054L37.7118 54.2589L37.4618 53.8259L35.6369 54.8795L35.8869 55.3125L34.0621 56.3661L33.8121 55.9331L31.9873 56.9866L32.2373 57.4196L30.4124 58.4732L30.1624 58.0402L29.5 58.4226L28.8376 58.0402L28.5876 58.4732L26.7627 57.4196L27.0127 56.9866L25.1879 55.9331L24.9379 56.3661L23.1131 55.3125L23.3631 54.8795L21.5382 53.8259L21.2882 54.2589L19.4634 53.2054L19.7134 52.7723L17.8885 51.7188L17.6385 52.1518L15.8137 51.0982L16.0637 50.6652L14.2389 49.6116L13.9889 50.0446L12.164 48.9911L12.414 48.5581L10.5892 47.5045L10.3392 47.9375L8.51435 46.8839L8.76435 46.4509L6.93951 45.3973L6.68951 45.8304L4.86467 44.7768L5.11467 44.3438L4.45225 43.9613V43.1964H3.95225V41.0893H4.45225V38.9821H3.95225V36.875H4.45225V34.7679H3.95225V32.6607H4.45225V30.5536H3.95225V28.4464H4.45225V26.3393H3.95225V24.2321H4.45225V22.125H3.95225V20.0179H4.45225V17.9107H3.95225V15.8036H4.45225V15.0387L5.11467 14.6562L4.86467 14.2232L6.68951 13.1696L6.93951 13.6027L8.76435 12.5491L8.51435 12.1161L10.3392 11.0625L10.5892 11.4955L12.414 10.4419L12.164 10.0089L13.9889 8.95536L14.2389 9.38837L16.0637 8.3348L15.8137 7.90179L17.6385 6.84822L17.8885 7.28123L19.7134 6.22766L19.4634 5.79464L21.2882 4.74107L21.5382 5.17408L23.3631 4.12051L23.1131 3.6875L24.9379 2.63393L25.1879 3.06694L27.0127 2.01337L26.7627 1.58036Z" stroke="#592F03" stroke-opacity="0.3" stroke-dasharray="2 2"/>
<path fill-rule="evenodd" clip-rule="evenodd" d="M39 34V36H19V34H39ZM39 28V30H19V28H39ZM39 22V24H19V22H39Z" fill="#592F03"/>
</svg>
